<svg width="54" height="48" fill="none" xmlns="http://www.w3.org/2000/svg"><g filter="url(#a)"><path d="M0-.584h54v43a5 5 0 0 1-5 5H5a5 5 0 0 1-5-5v-43Z" fill="url(#b)"/><path d="M0-.584h54v43a5 5 0 0 1-5 5H5a5 5 0 0 1-5-5v-43Z" fill="url(#c)"/></g><path d="m39.627 18.607-1.316 8.506v.094H15.659v-.095l-1.316-8.506c-.799 0-1.457-.704-1.457-1.503 0-.846.658-1.504 1.504-1.504s1.504.658 1.504 1.504c0 .329-.094.658-.282.893l3.243 2.725c1.08.893 2.679.658 3.43-.517l3.855-6.015c-.423-.282-.705-.752-.705-1.269 0-.846.658-1.504 1.504-1.504s1.504.658 1.504 1.504c0 .517-.282.987-.705 1.269l3.854 6.015c.752 1.175 2.35 1.41 3.43.517l3.243-2.725c-.188-.235-.282-.564-.282-.893 0-.846.658-1.504 1.504-1.504s1.504.658 1.504 1.504c.093.798-.565 1.504-1.364 1.504Zm-23.263 13.3h21.289c.376 0 .705-.33.705-.705v-3.055h-22.7v3.055c0 .376.283.704.706.704Z" fill="#937F39"/><defs><linearGradient id="b" x1="-7.65" y1="12.216" x2="36.71" y2="-5.63" gradientUnits="userSpaceOnUse"><stop stop-color="#FEE177"/><stop offset="1" stop-color="#FEE177"/></linearGradient><linearGradient id="c" x1="4.945" y1="-4.09" x2="61.262" y2="4.695" gradientUnits="userSpaceOnUse"><stop stop-color="#E8CC6D"/><stop offset="1" stop-color="#F7E092"/></linearGradient><filter id="a" x="0" y="-.584" width="54" height="51.883" filterUnits="userSpaceOnUse" color-interpolation-filters="sRGB"><feFlood flood-opacity="0" result="BackgroundImageFix"/><feBlend in="SourceGraphic" in2="BackgroundImageFix" result="shape"/><feColorMatrix in="SourceAlpha" values="0 0 0 0 0 0 0 0 0 0 0 0 0 0 0 0 0 0 127 0" result="hardAlpha"/><feOffset dy="3.883"/><feGaussianBlur stdDeviation="4.854"/><feComposite in2="hardAlpha" operator="arithmetic" k2="-1" k3="1"/><feColorMatrix values="0 0 0 0 1 0 0 0 0 1 0 0 0 0 1 0 0 0 0.3 0"/><feBlend in2="shape" result="effect1_innerShadow_12_2393"/></filter></defs></svg>