<svg width="21" height="21" viewBox="0 0 21 21" fill="none" xmlns="http://www.w3.org/2000/svg">
<path fill-rule="evenodd" clip-rule="evenodd" d="M6.71923 0.633809L8.56318 5.26356C8.95231 6.23509 8.05436 6.69979 7.34886 7.15599C6.81167 7.50324 6.10061 7.96203 5.5516 8.41774C4.48423 9.30498 11.6947 16.517 12.5829 15.4485C13.0383 14.8995 13.4971 14.1887 13.8446 13.6519C14.2664 12.9989 14.7707 12.0521 15.6982 12.4177L20.3668 14.282C20.7944 14.4529 21.0625 14.9015 20.9874 15.3744C20.2499 20.0005 17.5977 21.4171 14.3391 20.8987C8.59748 19.9839 1.01571 12.4032 0.101537 6.66159C-0.415705 3.41413 0.988518 0.769815 5.57684 0.0219605C6.04688 -0.078336 6.5346 0.172208 6.71923 0.633809Z" fill="#7D7D7D"/>
</svg>
